<svg xmlns="http://www.w3.org/2000/svg" viewBox="0 0 1600 900" preserveAspectRatio="xMidYMid slice">
  <defs>
    <filter id="deepShadow" x="-12%" y="-12%" width="124%" height="124%">
      <feDropShadow dx="-15" dy="18" stdDeviation="9" flood-color="#080402" flood-opacity=".50"/>
    </filter>
    <filter id="rimShadow" x="-8%" y="-8%" width="116%" height="116%">
      <feDropShadow dx="-7" dy="9" stdDeviation="4" flood-color="#120704" flood-opacity=".45"/>
    </filter>
    <linearGradient id="ply" x1="0" y1="0" x2="1" y2="1">
      <stop offset="0" stop-color="#f3d49c"/>
      <stop offset=".52" stop-color="#d9ad75"/>
      <stop offset="1" stop-color="#f8dfad"/>
    </linearGradient>
    <linearGradient id="burn" x1="0" y1="0" x2="1" y2="1">
      <stop offset="0" stop-color="#2b1308"/>
      <stop offset=".5" stop-color="#6a3516"/>
      <stop offset="1" stop-color="#1b0a04"/>
    </linearGradient>
    <path id="petal" d="M0,-385 C70,-302 78,-218 0,-154 C-78,-218 -70,-302 0,-385Z"/>
    <path id="leaf" d="M0,-455 C30,-402 28,-352 0,-318 C-28,-352 -30,-402 0,-455Z"/>
    <g id="mandalaSpoke">
      <use href="#leaf"/>
      <use href="#petal"/>
      <path d="M0,-320 L58,-230 L0,-140 L-58,-230Z"/>
      <path d="M0,-248 L34,-178 L0,-108 L-34,-178Z"/>
    </g>
  </defs>

  <rect width="1600" height="900" fill="none"/>

  <g opacity=".92" filter="url(#deepShadow)">
    <path fill="url(#ply)" d="M28 64H430L358 152H164L126 210H28Z"/>
    <path fill="url(#ply)" d="M1572 64H1170L1242 152H1436L1474 210H1572Z"/>
    <path fill="url(#ply)" d="M28 836H430L358 748H164L126 690H28Z"/>
    <path fill="url(#ply)" d="M1572 836H1170L1242 748H1436L1474 690H1572Z"/>
    <path fill="url(#ply)" d="M0 322H330L420 450L330 578H0V506H280L322 450L280 394H0Z"/>
    <path fill="url(#ply)" d="M1600 322H1270L1180 450L1270 578H1600V506H1320L1278 450L1320 394H1600Z"/>
  </g>

  <g transform="translate(800 450)" filter="url(#deepShadow)">
    <g fill="none" stroke="url(#burn)" stroke-linejoin="round" stroke-linecap="round">
      <circle r="430" stroke-width="42"/>
      <circle r="360" stroke-width="34"/>
      <circle r="286" stroke-width="28"/>
      <circle r="214" stroke-width="22"/>
      <circle r="142" stroke-width="18"/>
      <circle r="72" stroke-width="14"/>
      <path d="M0,-430 L372,-215 L372,215 L0,430 L-372,215 L-372,-215Z" stroke-width="34"/>
      <path d="M0,-344 L298,-172 L298,172 L0,344 L-298,172 L-298,-172Z" transform="rotate(30)" stroke-width="28"/>
      <path d="M0,-258 L223,-129 L223,129 L0,258 L-223,129 L-223,-129Z" stroke-width="22"/>
    </g>

    <g fill="none" stroke="url(#ply)" stroke-linejoin="round" stroke-linecap="round" filter="url(#rimShadow)">
      <circle r="430" stroke-width="26"/>
      <circle r="360" stroke-width="22"/>
      <circle r="286" stroke-width="18"/>
      <circle r="214" stroke-width="15"/>
      <circle r="142" stroke-width="12"/>
      <circle r="72" stroke-width="10"/>
      <path d="M0,-430 L372,-215 L372,215 L0,430 L-372,215 L-372,-215Z" stroke-width="22"/>
      <path d="M0,-344 L298,-172 L298,172 L0,344 L-298,172 L-298,-172Z" transform="rotate(30)" stroke-width="18"/>
      <path d="M0,-258 L223,-129 L223,129 L0,258 L-223,129 L-223,-129Z" stroke-width="15"/>
    </g>

    <g fill="none" stroke="url(#burn)" stroke-width="21" stroke-linejoin="round" stroke-linecap="round" opacity=".95">
      <use href="#mandalaSpoke" transform="rotate(0)"/>
      <use href="#mandalaSpoke" transform="rotate(30)"/>
      <use href="#mandalaSpoke" transform="rotate(60)"/>
      <use href="#mandalaSpoke" transform="rotate(90)"/>
      <use href="#mandalaSpoke" transform="rotate(120)"/>
      <use href="#mandalaSpoke" transform="rotate(150)"/>
      <use href="#mandalaSpoke" transform="rotate(180)"/>
      <use href="#mandalaSpoke" transform="rotate(210)"/>
      <use href="#mandalaSpoke" transform="rotate(240)"/>
      <use href="#mandalaSpoke" transform="rotate(270)"/>
      <use href="#mandalaSpoke" transform="rotate(300)"/>
      <use href="#mandalaSpoke" transform="rotate(330)"/>
    </g>

    <g fill="none" stroke="url(#ply)" stroke-width="13" stroke-linejoin="round" stroke-linecap="round" filter="url(#rimShadow)">
      <use href="#mandalaSpoke" transform="rotate(0)"/>
      <use href="#mandalaSpoke" transform="rotate(30)"/>
      <use href="#mandalaSpoke" transform="rotate(60)"/>
      <use href="#mandalaSpoke" transform="rotate(90)"/>
      <use href="#mandalaSpoke" transform="rotate(120)"/>
      <use href="#mandalaSpoke" transform="rotate(150)"/>
      <use href="#mandalaSpoke" transform="rotate(180)"/>
      <use href="#mandalaSpoke" transform="rotate(210)"/>
      <use href="#mandalaSpoke" transform="rotate(240)"/>
      <use href="#mandalaSpoke" transform="rotate(270)"/>
      <use href="#mandalaSpoke" transform="rotate(300)"/>
      <use href="#mandalaSpoke" transform="rotate(330)"/>
    </g>

    <g fill="none" stroke="#2a1107" stroke-width="5" opacity=".72">
      <circle r="398"/>
      <circle r="324"/>
      <circle r="250"/>
      <circle r="178"/>
      <circle r="108"/>
      <path d="M0,-398 L345,-199 L345,199 L0,398 L-345,199 L-345,-199Z" transform="rotate(15)"/>
      <path d="M0,-300 L260,-150 L260,150 L0,300 L-260,150 L-260,-150Z" transform="rotate(45)"/>
      <path d="M0,-222 L192,-111 L192,111 L0,222 L-192,111 L-192,-111Z"/>
    </g>
  </g>

  <g opacity=".74" fill="none" stroke="url(#burn)" stroke-width="18" stroke-linejoin="round" filter="url(#rimShadow)">
    <path d="M90 106H348L276 178H164L118 252H40"/>
    <path d="M1510 106H1252L1324 178H1436L1482 252H1560"/>
    <path d="M90 794H348L276 722H164L118 648H40"/>
    <path d="M1510 794H1252L1324 722H1436L1482 648H1560"/>
    <path d="M74 450H286"/>
    <path d="M1314 450H1526"/>
  </g>

  <g opacity=".46" fill="none" stroke="#f7dba8" stroke-width="4" stroke-linejoin="round">
    <path d="M54 80H404L330 172H184L136 230H54"/>
    <path d="M1546 80H1196L1270 172H1416L1464 230H1546"/>
    <path d="M54 820H404L330 728H184L136 670H54"/>
    <path d="M1546 820H1196L1270 728H1416L1464 670H1546"/>
  </g>
</svg>
